<?xml version="1.0" encoding="UTF-8"?>
<svg width="200px" height="200px" viewBox="0 0 200 200" version="1.1" xmlns="http://www.w3.org/2000/svg" xmlns:xlink="http://www.w3.org/1999/xlink">
    <title>App Icon</title>
    <defs>
        <radialGradient cx="50%" cy="50%" fx="50%" fy="50%" r="56.1296422%" id="radialGradient-1">
            <stop stop-color="#31D46F" offset="0%"></stop>
            <stop stop-color="#77C344" offset="100%"></stop>
        </radialGradient>
    </defs>
    <g id="Page-1" stroke="none" stroke-width="1" fill="none" fill-rule="evenodd">
        <g id="App-Icon">
            <rect id="Rectangle" fill="url(#radialGradient-1)" x="0" y="0" width="200" height="200" rx="42"></rect>
            <g id="music-note" transform="translate(55.000000, 26.000000)" fill="#000000" fill-rule="nonzero">
                <path d="M90,33.5247577 L90,5.82671828 C90,3.86234614 89.311469,2.32768983 87.9344069,1.22274936 C86.5573449,0.117708314 84.9343717,-0.238334765 83.0654873,0.154620124 L45.1475316,8.40501328 C40.2786624,9.48541293 37.8442277,12.0637079 37.8442277,16.1398983 L37.9918349,98.0551519 C38.3852524,101.78757 36.8606336,103.997551 33.4179784,104.685096 L21.6884253,107.115996 C14.3113934,108.687513 8.85239792,111.314895 5.31143875,114.998141 C1.77047958,118.681386 0,123.297716 0,128.84713 C0,134.494778 1.95490034,139.098853 5.86470103,142.659354 C9.77450172,146.219785 14.8032157,148 20.950843,148 C23.6557143,148 26.5696329,147.472071 29.6925985,146.416212 C32.8155641,145.360353 35.766397,143.678351 38.5450971,141.370206 C41.3237973,139.062011 43.5983871,136.02946 45.3688667,132.272551 C47.1393463,128.515643 48.0245861,123.960695 48.0245861,118.607708 L48.0245861,51.2042578 C48.0245861,49.2890679 48.2827852,47.9999707 48.7991835,47.3369662 C49.3155818,46.6739617 50.4590207,46.1460323 52.2295003,45.7531779 L85.9425418,38.386707 C87.1720471,38.092016 88.1556917,37.5149546 88.8934754,36.6555229 C89.6311585,35.7960913 90,34.7525029 90,33.5247577 Z" id="Path"></path>
            </g>
        </g>
    </g>
</svg>